<svg width="132" height="77" viewBox="0 0 132 77" fill="none" xmlns="http://www.w3.org/2000/svg">
<path d="M46.191 12.2366C50.6019 3.93729 59.8419 -1.1377 69.7036 0.218374C78.761 1.46386 85.8911 7.79696 88.6027 15.9429C100.089 18.5885 108.831 27.4905 111.653 38.473C112.956 38.376 114.289 38.4139 115.636 38.5992C125.96 40.0189 133.211 49.552 131.832 59.8917C130.452 70.2315 120.963 77.4627 110.639 76.043C106.54 75.4795 100.144 70.9742 100.144 70.9742C93.9189 75.5801 85.958 77.8488 77.6675 76.7088C69.2882 75.5566 62.1459 71.1385 57.3505 64.9131C51.9535 69.6842 44.5877 72.16 36.8801 71.1002C28.0846 69.8907 20.9247 64.3632 17.2485 56.947C15.5551 57.3935 13.7465 57.5197 11.9012 57.266C4.39242 56.2335 -0.881089 49.3005 0.122487 41.7805C1.12606 34.2605 7.92971 29.8443 15.5354 30.0341C15.5406 30.0348 15.5457 30.0355 15.5508 30.0362C17.2013 16.5005 29.0445 9.3598 41.4311 11.0631C43.0873 11.2908 44.679 11.6887 46.191 12.2366Z" fill="#FEE500"/>
</svg>
