<svg width="349" height="241" viewBox="0 0 349 241" fill="none" xmlns="http://www.w3.org/2000/svg">
<path d="M220.892 56.0618C208.849 37.0832 185.867 26.6221 162.574 31.5739C141.18 36.1219 125.315 52.4399 120.327 72.2992C93.3906 80.6039 74.1455 103.317 69.4132 129.946C66.2861 129.943 63.1108 130.266 59.9285 130.943C35.5419 136.127 19.9716 160.081 25.151 184.445C30.3305 208.81 54.2986 224.359 78.6852 219.175C88.3656 217.117 102.812 205.277 102.812 205.277C118.513 215.149 137.93 219.156 157.512 214.993C177.304 210.785 193.547 199.022 203.859 183.369C217.612 193.779 235.647 198.383 253.852 194.512C274.627 190.096 290.71 175.69 298.133 157.398C302.257 158.165 306.597 158.149 310.956 157.222C328.692 153.452 340.016 136.031 336.249 118.311C332.482 100.591 315.05 89.2832 297.315 93.0535C297.303 93.0561 297.291 93.0587 297.278 93.0613C290.063 64.3131 261.297 46.2171 232.04 52.4366C228.128 53.2683 224.401 54.4934 220.892 56.0618Z" fill="#0E9AFF"/>
<path d="M112.542 131.457C112.406 131.494 112.316 131.633 112.272 131.876C112.068 132.829 111.813 133.71 111.509 134.52C111.217 135.327 110.891 136.034 110.533 136.64C110.174 137.246 109.792 137.743 109.387 138.132C108.978 138.509 108.565 138.753 108.146 138.866C107.739 138.976 107.337 138.993 106.94 138.917C106.552 138.828 106.089 138.594 105.551 138.217C105.024 137.837 104.384 137.287 103.632 136.568C102.891 135.845 101.962 134.893 100.843 133.714C100.658 133.521 100.484 133.392 100.321 133.327C100.166 133.247 100.037 133.221 99.9354 133.248C99.7883 133.288 99.6952 133.483 99.656 133.833C99.6137 134.172 99.6235 134.637 99.6852 135.227C99.7439 135.806 99.8516 136.499 100.008 137.306C100.173 138.099 100.383 138.971 100.639 139.922C100.792 140.487 100.972 141.046 101.181 141.596C101.401 142.144 101.592 142.717 101.753 143.317C101.808 143.521 101.803 143.728 101.739 143.94C101.671 144.14 101.558 144.328 101.399 144.505C101.255 144.689 101.063 144.856 100.824 145.005C100.597 145.151 100.341 145.263 100.058 145.339C99.4926 145.491 98.9938 145.261 98.5621 144.649C98.1304 144.037 97.7136 142.984 97.3116 141.491C96.803 139.601 96.4434 137.859 96.2329 136.265C96.0307 134.657 95.9743 133.252 96.0636 132.051C96.1612 130.836 96.3952 129.856 96.7656 129.114C97.1444 128.356 97.6675 127.888 98.3352 127.708C98.9236 127.55 99.5751 127.738 100.29 128.274C101.013 128.796 101.888 129.725 102.915 131.063C103.329 131.607 103.748 132.107 104.174 132.562C104.612 133.015 105.025 133.401 105.415 133.721C105.812 134.027 106.178 134.256 106.51 134.41C106.839 134.551 107.112 134.593 107.327 134.536C107.542 134.478 107.733 134.378 107.901 134.235C108.078 134.079 108.248 133.808 108.411 133.425C108.583 133.026 108.755 132.47 108.927 131.757C109.11 131.04 109.317 130.092 109.546 128.914C109.671 128.298 109.792 127.78 109.91 127.36C110.028 126.94 110.165 126.594 110.322 126.321C110.476 126.036 110.66 125.817 110.873 125.663C111.083 125.497 111.336 125.374 111.63 125.295C111.981 125.201 112.376 125.295 112.816 125.577C113.256 125.859 113.718 126.268 114.202 126.805C114.698 127.339 115.21 127.978 115.738 128.722C116.266 129.466 116.793 130.253 117.319 131.082C117.857 131.908 118.388 132.754 118.913 133.62C119.445 134.472 119.954 135.281 120.44 136.049C120.575 136.279 120.667 136.443 120.717 136.538C120.776 136.62 120.823 136.728 120.86 136.864C120.912 137.057 120.901 137.266 120.828 137.492C120.764 137.703 120.655 137.908 120.503 138.107C120.35 138.306 120.161 138.484 119.937 138.642C119.723 138.796 119.498 138.906 119.26 138.969C118.943 139.055 118.685 139.088 118.486 139.069C118.295 139.035 118.122 138.936 117.969 138.771C117.885 138.684 117.716 138.439 117.461 138.034C117.206 137.629 116.902 137.153 116.548 136.605C116.203 136.042 115.826 135.452 115.417 134.834C115.019 134.213 114.631 133.65 114.252 133.145C113.882 132.626 113.545 132.207 113.24 131.888C112.933 131.558 112.7 131.415 112.542 131.457ZM121.408 132.949C121.356 132.756 121.321 132.535 121.302 132.285C121.283 132.035 121.236 131.769 121.16 131.486C121.108 131.294 120.984 131.17 120.787 131.113C120.601 131.054 120.389 130.99 120.152 130.92C119.915 130.85 119.685 130.742 119.464 130.596C119.254 130.446 119.1 130.19 119.002 129.828C118.932 129.568 118.93 129.289 118.996 128.992C119.073 128.692 119.218 128.398 119.432 128.11C119.966 127.433 120.536 126.8 121.142 126.212C121.76 125.621 122.388 125.094 123.028 124.63C123.679 124.164 124.336 123.763 124.998 123.427C125.66 123.091 126.314 122.836 126.959 122.662C128.045 122.37 129.118 122.3 130.178 122.451C131.247 122.588 132.226 122.913 133.117 123.426C134.015 123.925 134.795 124.589 135.455 125.418C136.123 126.233 136.601 127.173 136.887 128.237C137.167 129.278 137.213 130.327 137.024 131.385C136.844 132.429 136.481 133.4 135.934 134.3C135.387 135.2 134.671 135.987 133.785 136.662C132.913 137.346 131.928 137.836 130.83 138.131C129.755 138.42 128.711 138.507 127.697 138.392C126.683 138.276 125.757 137.992 124.918 137.538C124.077 137.072 123.353 136.454 122.745 135.683C122.134 134.901 121.688 133.99 121.408 132.949ZM130.382 134.975C130.857 134.847 131.323 134.619 131.781 134.289C132.238 133.96 132.627 133.558 132.949 133.083C133.278 132.594 133.507 132.047 133.636 131.442C133.775 130.834 133.755 130.196 133.576 129.528C133.393 128.849 133.098 128.249 132.691 127.728C132.283 127.206 131.801 126.79 131.244 126.479C130.695 126.153 130.088 125.946 129.421 125.859C128.765 125.768 128.092 125.816 127.402 126.002C126.146 126.34 125.273 126.927 124.782 127.763C124.287 128.587 124.222 129.673 124.584 131.02C124.782 131.755 125.074 132.411 125.459 132.987C125.853 133.548 126.311 134.008 126.831 134.365C127.349 134.711 127.909 134.943 128.511 135.06C129.124 135.174 129.748 135.146 130.382 134.975ZM137.366 120.007C137.321 119.837 137.35 119.653 137.454 119.455C137.556 119.246 137.709 119.047 137.913 118.859C138.114 118.659 138.351 118.48 138.624 118.321C138.905 118.149 139.198 118.021 139.504 117.939C139.674 117.893 139.827 117.9 139.965 117.961C140.114 118.018 140.268 118.164 140.429 118.4C140.586 118.625 140.762 118.96 140.954 119.405C141.155 119.837 141.389 120.411 141.655 121.128C141.761 121.342 141.848 121.507 141.915 121.622C141.991 121.723 142.063 121.765 142.131 121.747C142.232 121.719 142.287 121.516 142.294 121.138C142.478 118.528 143.35 117.013 144.912 116.593C145.636 116.398 146.354 116.447 147.064 116.742C147.785 117.033 148.539 117.625 149.326 118.518C150.12 119.396 150.975 120.61 151.89 122.16C152.801 123.699 153.818 125.628 154.94 127.947C154.996 128.065 155.043 128.174 155.082 128.273C155.121 128.372 155.152 128.466 155.177 128.557C155.247 128.817 155.246 129.06 155.173 129.286C155.108 129.498 154.997 129.691 154.838 129.868C154.676 130.033 154.484 130.175 154.261 130.296C154.042 130.428 153.814 130.526 153.576 130.59C153.101 130.717 152.742 130.759 152.499 130.715C152.268 130.668 152.086 130.511 151.954 130.243C151.163 128.612 150.429 127.171 149.753 125.921C149.088 124.668 148.481 123.63 147.932 122.807C147.391 121.969 146.909 121.352 146.487 120.956C146.065 120.56 145.707 120.402 145.412 120.481C145.118 120.56 144.891 120.821 144.731 121.265C144.58 121.694 144.49 122.331 144.463 123.176C144.435 124.021 144.47 125.073 144.566 126.334C144.674 127.591 144.85 129.079 145.094 130.797C145.159 131.265 145.031 131.688 144.708 132.066C144.385 132.444 143.918 132.716 143.307 132.88C142.899 132.99 142.565 132.989 142.304 132.877C142.044 132.765 141.863 132.565 141.761 132.277C141.025 129.95 140.391 128.046 139.859 126.563C139.335 125.066 138.898 123.873 138.55 122.983C138.198 122.083 137.927 121.415 137.738 120.981C137.548 120.547 137.424 120.222 137.366 120.007ZM153.599 109.303C153.438 108.703 153.495 108.239 153.771 107.91C154.043 107.57 154.57 107.295 155.35 107.084C155.633 107.008 155.879 106.973 156.086 106.977C156.302 106.968 156.496 107.013 156.669 107.112C156.852 107.208 157.014 107.359 157.154 107.564C157.303 107.754 157.451 108.012 157.599 108.336C158.018 109.352 158.457 110.399 158.917 111.476C159.388 112.551 159.867 113.63 160.352 114.713C160.557 115.204 160.892 115.387 161.356 115.262C161.48 115.228 161.681 115.162 161.958 115.063C162.243 114.95 162.579 114.823 162.966 114.683C163.35 114.531 163.762 114.371 164.202 114.204C164.654 114.034 165.102 113.871 165.545 113.716C165.997 113.545 166.424 113.394 166.825 113.262C167.234 113.115 167.598 112.999 167.914 112.914C168.163 112.847 168.375 112.845 168.55 112.907C168.721 112.958 168.868 113.052 168.99 113.189C169.12 113.312 169.222 113.466 169.296 113.653C169.379 113.824 169.446 114.007 169.498 114.199C169.544 114.369 169.557 114.553 169.538 114.753C169.53 114.949 169.489 115.136 169.416 115.313C169.35 115.477 169.251 115.625 169.117 115.758C168.983 115.891 168.814 115.985 168.61 116.04C167.626 116.305 166.639 116.607 165.65 116.946C164.669 117.27 163.695 117.618 162.727 117.987C162.236 118.192 162.049 118.516 162.168 118.957C162.177 118.991 162.195 119.035 162.222 119.088C162.245 119.13 162.262 119.168 162.271 119.202C162.671 120.15 163.044 121.039 163.389 121.869C163.745 122.695 164.054 123.437 164.316 124.095C164.586 124.738 164.804 125.28 164.972 125.72C165.147 126.147 165.254 126.433 165.294 126.58C165.404 126.988 165.455 127.338 165.449 127.631C165.446 127.935 165.377 128.196 165.242 128.415C165.109 128.645 164.899 128.834 164.612 128.985C164.339 129.143 163.977 129.283 163.524 129.405C163.094 129.521 162.75 129.504 162.491 129.355C162.233 129.206 162.036 128.926 161.9 128.513C161.473 127.196 161.005 125.884 160.495 124.577C159.983 123.259 159.449 121.952 158.894 120.657C158.661 120.198 158.341 120.023 157.934 120.133C157.9 120.142 157.862 120.158 157.82 120.182C157.777 120.205 157.739 120.222 157.705 120.231C157.046 120.578 156.427 120.915 155.847 121.241C155.268 121.566 154.73 121.893 154.236 122.22C153.958 122.404 153.706 122.551 153.481 122.66C153.252 122.758 153.042 122.833 152.849 122.885C152.589 122.955 152.366 122.893 152.181 122.701C151.992 122.496 151.851 122.219 151.757 121.868C151.723 121.744 151.696 121.599 151.676 121.435C151.653 121.259 151.654 121.083 151.68 120.906C151.691 120.721 151.74 120.544 151.828 120.374C151.901 120.197 152.028 120.035 152.207 119.89C152.631 119.57 153.211 119.201 153.948 118.784C154.683 118.356 155.523 117.918 156.47 117.468C156.682 117.351 156.833 117.213 156.924 117.055C157.023 116.883 157.037 116.667 156.967 116.406C156.952 116.35 156.937 116.293 156.922 116.237C156.903 116.169 156.874 116.104 156.833 116.042C156.372 115.05 155.942 114.152 155.544 113.349C155.154 112.532 154.815 111.834 154.526 111.257C154.248 110.676 154.028 110.219 153.866 109.887C153.703 109.554 153.615 109.36 153.599 109.303ZM184.932 117.909C185.184 117.538 185.469 117.31 185.785 117.224C185.966 117.176 186.143 117.177 186.314 117.228C186.486 117.279 186.688 117.376 186.921 117.52C187.16 117.734 187.337 117.917 187.451 118.069C187.573 118.206 187.655 118.354 187.697 118.512C187.789 118.851 187.706 119.22 187.449 119.617C187.027 120.215 186.548 120.781 186.012 121.314C185.473 121.835 184.892 122.313 184.268 122.748C183.645 123.183 182.982 123.561 182.28 123.884C181.581 124.217 180.87 124.482 180.146 124.677C179.229 124.923 178.337 125.036 177.47 125.015C176.605 125.004 175.798 124.87 175.049 124.61C174.311 124.348 173.646 123.974 173.055 123.49C172.46 122.995 171.97 122.393 171.585 121.683C171.398 121.394 171.247 121.216 171.132 121.15C171.026 121.069 170.876 121.055 170.684 121.107C170.265 121.219 169.915 121.204 169.634 121.062C169.353 120.919 169.16 120.655 169.057 120.27C169.014 120.112 168.998 120.007 169.009 119.956L168.951 119.607C168.898 119.184 168.926 118.861 169.036 118.638C169.157 118.411 169.393 118.25 169.744 118.156L169.998 118.087C170.474 117.959 170.748 117.649 170.822 117.156C170.962 116.281 171.218 115.447 171.587 114.656C171.957 113.865 172.42 113.152 172.977 112.516C173.531 111.87 174.16 111.318 174.862 110.862C175.573 110.392 176.33 110.048 177.133 109.832C177.971 109.607 178.785 109.521 179.576 109.575C180.376 109.615 181.105 109.777 181.764 110.06C182.423 110.344 182.983 110.734 183.444 111.229C183.916 111.72 184.242 112.3 184.421 112.968C184.546 113.432 184.57 113.88 184.492 114.314C184.415 114.747 184.246 115.157 183.986 115.543C183.722 115.917 183.372 116.26 182.934 116.572C182.507 116.881 181.996 117.146 181.4 117.367L175.67 119.546C175.444 119.607 175.272 119.714 175.156 119.867C175.05 120.016 175.024 120.188 175.075 120.38C175.155 120.674 175.338 120.928 175.626 121.142C175.926 121.352 176.285 121.517 176.705 121.634C177.134 121.737 177.602 121.787 178.111 121.784C178.631 121.777 179.146 121.706 179.655 121.568C180.141 121.438 180.627 121.258 181.112 121.031C181.605 120.789 182.076 120.51 182.526 120.195C182.986 119.877 183.42 119.53 183.829 119.153C184.234 118.765 184.602 118.35 184.932 117.909ZM179.968 114.549C180.129 114.469 180.255 114.35 180.346 114.192C180.434 114.023 180.452 113.842 180.4 113.65C180.354 113.48 180.249 113.338 180.085 113.225C179.921 113.111 179.716 113.027 179.471 112.971C179.222 112.905 178.948 112.875 178.646 112.884C178.345 112.892 178.036 112.939 177.719 113.024C177.255 113.149 176.798 113.345 176.348 113.611C175.898 113.878 175.506 114.178 175.171 114.511C174.832 114.833 174.575 115.163 174.399 115.501C174.221 115.828 174.166 116.122 174.236 116.382C174.306 116.643 174.5 116.73 174.817 116.645C175.009 116.593 175.314 116.487 175.732 116.326C176.15 116.165 176.611 115.986 177.117 115.789C177.619 115.581 178.125 115.366 178.636 115.144C179.146 114.921 179.59 114.723 179.968 114.549ZM189.707 104.81C190.466 104.606 191.274 104.497 192.132 104.485C192.987 104.461 193.791 104.518 194.544 104.655C195.294 104.781 195.936 104.978 196.469 105.247C197.003 105.516 197.319 105.832 197.416 106.194C197.465 106.375 197.44 106.6 197.343 106.869C197.242 107.127 197.106 107.388 196.935 107.652C196.76 107.906 196.555 108.137 196.32 108.346C196.094 108.54 195.878 108.665 195.675 108.72C195.403 108.793 195.067 108.762 194.667 108.627C194.278 108.489 193.843 108.339 193.362 108.177C192.89 108 192.386 107.863 191.85 107.765C191.314 107.666 190.768 107.692 190.214 107.841C189.852 107.938 189.576 108.11 189.387 108.355C189.207 108.585 189.159 108.859 189.244 109.176C189.32 109.459 189.534 109.711 189.885 109.932C190.232 110.142 190.668 110.34 191.191 110.527C191.726 110.711 192.322 110.896 192.98 111.083C193.637 111.27 194.311 111.477 195.003 111.704C195.707 111.927 196.402 112.189 197.09 112.489C197.777 112.789 198.413 113.146 198.998 113.559C199.594 113.969 200.113 114.455 200.555 115.015C200.994 115.565 201.312 116.207 201.51 116.943C201.681 117.576 201.723 118.184 201.637 118.765C201.551 119.347 201.348 119.88 201.03 120.367C200.712 120.853 200.292 121.275 199.769 121.634C199.247 121.993 198.641 122.266 197.95 122.451C197.079 122.686 196.239 122.766 195.431 122.693C194.625 122.63 193.894 122.439 193.237 122.118C192.58 121.797 192.012 121.355 191.533 120.793C191.065 120.227 190.728 119.559 190.521 118.79C190.253 117.794 190.233 117.022 190.462 116.475C190.703 115.925 191.208 115.547 191.977 115.34C192.452 115.212 192.856 115.2 193.187 115.305C193.519 115.41 193.72 115.593 193.79 115.853C193.826 115.989 193.842 116.136 193.836 116.296C193.828 116.443 193.816 116.604 193.802 116.778C193.797 116.937 193.794 117.108 193.794 117.29C193.806 117.469 193.835 117.643 193.88 117.813C193.96 118.107 194.104 118.372 194.313 118.607C194.521 118.842 194.766 119.031 195.048 119.173C195.343 119.324 195.66 119.421 195.999 119.463C196.338 119.506 196.678 119.481 197.017 119.39C197.923 119.146 198.275 118.651 198.074 117.904C197.915 117.315 197.534 116.823 196.93 116.428C196.323 116.021 195.602 115.663 194.766 115.354C193.927 115.033 193.032 114.728 192.08 114.438C191.14 114.145 190.244 113.816 189.393 113.45C188.542 113.084 187.801 112.653 187.17 112.155C186.535 111.646 186.119 111.024 185.921 110.289C185.757 109.678 185.73 109.084 185.842 108.508C185.966 107.928 186.199 107.398 186.543 106.918C186.884 106.425 187.321 105.998 187.855 105.636C188.4 105.271 189.017 104.996 189.707 104.81ZM202.506 101.365C203.264 101.161 204.072 101.053 204.931 101.04C205.786 101.017 206.59 101.073 207.343 101.21C208.093 101.336 208.734 101.534 209.268 101.803C209.802 102.072 210.117 102.387 210.215 102.749C210.263 102.93 210.239 103.155 210.141 103.424C210.041 103.682 209.905 103.943 209.733 104.208C209.559 104.461 209.354 104.692 209.119 104.901C208.892 105.096 208.677 105.22 208.473 105.275C208.202 105.348 207.866 105.317 207.465 105.182C207.076 105.044 206.641 104.894 206.161 104.732C205.689 104.556 205.184 104.419 204.648 104.32C204.112 104.222 203.567 104.247 203.012 104.396C202.65 104.494 202.375 104.665 202.186 104.91C202.005 105.141 201.957 105.415 202.043 105.731C202.119 106.014 202.332 106.266 202.683 106.487C203.031 106.697 203.466 106.896 203.99 107.082C204.525 107.266 205.121 107.451 205.778 107.639C206.435 107.826 207.11 108.033 207.802 108.259C208.505 108.482 209.201 108.744 209.888 109.045C210.576 109.345 211.212 109.702 211.796 110.115C212.392 110.525 212.911 111.01 213.353 111.571C213.792 112.12 214.111 112.762 214.309 113.498C214.479 114.132 214.521 114.739 214.435 115.321C214.349 115.902 214.147 116.436 213.829 116.922C213.51 117.408 213.09 117.831 212.568 118.19C212.046 118.549 211.439 118.821 210.749 119.007C209.878 119.241 209.038 119.322 208.229 119.248C207.423 119.186 206.692 118.994 206.036 118.674C205.379 118.353 204.811 117.911 204.332 117.348C203.864 116.782 203.527 116.115 203.319 115.345C203.051 114.349 203.032 113.578 203.261 113.031C203.501 112.481 204.006 112.102 204.776 111.895C205.251 111.767 205.654 111.756 205.986 111.861C206.318 111.966 206.518 112.148 206.588 112.408C206.625 112.544 206.64 112.692 206.635 112.851C206.626 112.999 206.615 113.16 206.601 113.333C206.595 113.493 206.592 113.663 206.593 113.845C206.605 114.024 206.633 114.198 206.679 114.368C206.758 114.662 206.902 114.927 207.111 115.162C207.32 115.397 207.565 115.586 207.846 115.729C208.142 115.88 208.459 115.977 208.798 116.019C209.137 116.061 209.476 116.036 209.816 115.945C210.721 115.701 211.073 115.206 210.872 114.459C210.714 113.871 210.333 113.379 209.729 112.983C209.121 112.576 208.4 112.218 207.564 111.909C206.726 111.589 205.831 111.283 204.879 110.994C203.938 110.701 203.043 110.371 202.192 110.006C201.341 109.64 200.6 109.208 199.968 108.711C199.334 108.202 198.918 107.58 198.72 106.844C198.555 106.233 198.529 105.639 198.641 105.063C198.764 104.484 198.998 103.954 199.341 103.473C199.682 102.981 200.12 102.554 200.653 102.192C201.198 101.827 201.816 101.551 202.506 101.365ZM213.747 108.097C213.695 107.905 213.66 107.684 213.641 107.434C213.623 107.184 213.575 106.918 213.499 106.635C213.447 106.442 213.323 106.318 213.126 106.262C212.94 106.203 212.728 106.138 212.491 106.069C212.254 105.999 212.025 105.891 211.803 105.744C211.593 105.594 211.439 105.338 211.342 104.976C211.272 104.716 211.27 104.437 211.335 104.141C211.412 103.841 211.558 103.547 211.771 103.259C212.305 102.581 212.875 101.948 213.481 101.36C214.099 100.769 214.728 100.242 215.368 99.7788C216.019 99.3123 216.675 98.9111 217.337 98.5751C217.999 98.2392 218.653 97.9845 219.298 97.8109C220.384 97.5185 221.457 97.4481 222.518 97.5996C223.586 97.7368 224.566 98.0618 225.456 98.5746C226.355 99.073 227.134 99.737 227.794 100.567C228.463 101.382 228.94 102.321 229.226 103.385C229.506 104.426 229.552 105.476 229.364 106.534C229.183 107.577 228.82 108.549 228.273 109.448C227.727 110.348 227.01 111.135 226.124 111.811C225.252 112.495 224.267 112.984 223.17 113.279C222.095 113.569 221.05 113.656 220.036 113.54C219.022 113.425 218.096 113.14 217.258 112.686C216.416 112.221 215.692 111.603 215.084 110.832C214.473 110.05 214.027 109.138 213.747 108.097ZM222.721 110.124C223.196 109.996 223.662 109.767 224.12 109.438C224.577 109.108 224.967 108.706 225.288 108.231C225.617 107.742 225.846 107.195 225.975 106.59C226.115 105.982 226.095 105.344 225.915 104.677C225.732 103.998 225.437 103.398 225.03 102.876C224.623 102.355 224.14 101.938 223.583 101.627C223.035 101.301 222.427 101.095 221.76 101.007C221.105 100.917 220.432 100.964 219.741 101.15C218.485 101.488 217.612 102.075 217.121 102.911C216.627 103.736 216.561 104.822 216.923 106.168C217.121 106.904 217.413 107.559 217.799 108.135C218.192 108.697 218.65 109.156 219.171 109.514C219.689 109.86 220.249 110.091 220.85 110.208C221.464 110.322 222.087 110.294 222.721 110.124ZM238.887 93.7585C238.468 93.8712 238.131 94.0834 237.875 94.395C237.616 94.6952 237.426 95.0739 237.307 95.5308C237.184 95.9765 237.12 96.4851 237.116 97.0565C237.109 97.6166 237.144 98.2201 237.221 98.8668C237.298 99.5136 237.411 100.181 237.56 100.869C237.709 101.557 237.876 102.246 238.062 102.937C238.305 103.842 238.58 104.727 238.885 105.591C239.199 106.441 239.457 107.24 239.658 107.987C239.788 108.473 239.709 108.901 239.42 109.27C239.134 109.65 238.658 109.93 237.99 110.11C237.866 110.144 237.721 110.17 237.557 110.19C237.392 110.21 237.227 110.206 237.062 110.178C236.908 110.146 236.757 110.084 236.611 109.99C236.478 109.904 236.379 109.761 236.313 109.56C235.943 108.592 235.522 107.613 235.049 106.624C234.577 105.634 234.055 104.664 233.483 103.714C232.92 102.749 232.298 101.812 231.617 100.903C230.946 99.9913 230.22 99.1188 229.438 98.2857C229.301 98.1404 229.18 98.0033 229.072 97.8744C228.976 97.7425 228.91 97.6087 228.873 97.4729C228.827 97.3032 228.852 97.1023 228.947 96.8704C229.051 96.624 229.193 96.3855 229.374 96.1549C229.566 95.9212 229.784 95.7169 230.028 95.5419C230.281 95.3526 230.537 95.223 230.797 95.1529C231.227 95.0372 231.687 95.235 232.177 95.7465C232.663 96.2466 233.223 97.1092 233.856 98.3345C233.974 98.5456 234.061 98.6918 234.12 98.7732C234.178 98.8546 234.235 98.8877 234.292 98.8724C234.417 98.8389 234.444 98.6252 234.374 98.2314C234.221 97.1198 234.205 96.1351 234.326 95.2773C234.444 94.4081 234.679 93.6591 235.032 93.0303C235.392 92.3871 235.858 91.8613 236.428 91.4532C237.009 91.0419 237.684 90.7328 238.453 90.5257C238.895 90.4069 239.352 90.3262 239.826 90.2836C240.3 90.241 240.74 90.2502 241.144 90.3111C241.549 90.3721 241.895 90.4853 242.182 90.6507C242.47 90.8161 242.651 91.0403 242.727 91.3232C242.782 91.5269 242.802 91.7823 242.788 92.0896C242.782 92.3825 242.746 92.6774 242.68 92.9742C242.611 93.2597 242.511 93.5173 242.379 93.7471C242.254 93.9625 242.102 94.0946 241.921 94.1433C241.717 94.1982 241.504 94.1949 241.281 94.1335C241.055 94.0608 240.811 93.987 240.548 93.9121C240.296 93.8342 240.031 93.7721 239.752 93.726C239.48 93.6655 239.192 93.6763 238.887 93.7585ZM243.313 87.6158C242.985 87.7041 242.662 87.7426 242.343 87.7312C242.033 87.7055 241.747 87.6367 241.487 87.5249C241.234 87.3986 241.014 87.2334 240.825 87.0293C240.637 86.8252 240.505 86.5816 240.429 86.2987C240.301 85.8235 240.384 85.3885 240.678 84.9937C240.984 84.596 241.453 84.3118 242.087 84.1413C242.381 84.0621 242.679 84.0425 242.981 84.0826C243.28 84.1113 243.556 84.1888 243.808 84.3151C244.072 84.4383 244.3 84.6076 244.491 84.823C244.68 85.0272 244.809 85.2594 244.879 85.5197C245.01 86.0063 244.932 86.4397 244.646 86.8201C244.369 87.1861 243.924 87.4513 243.313 87.6158ZM242.381 93.4187C242.275 93.0227 242.358 92.6545 242.63 92.3142C242.911 91.9595 243.334 91.706 243.9 91.5537C244.918 91.2796 245.556 91.4842 245.813 92.1676C245.989 92.642 246.182 93.1786 246.392 93.7775C246.613 94.3734 246.839 95.0103 247.07 95.6884C247.309 96.3522 247.545 97.0472 247.776 97.7736C248.017 98.4857 248.25 99.1936 248.475 99.8974C248.698 100.59 248.909 101.261 249.109 101.911C249.308 102.562 249.481 103.158 249.627 103.702C249.779 104.267 249.69 104.747 249.358 105.139C249.038 105.529 248.494 105.827 247.724 106.034C247.373 106.128 247.073 106.118 246.824 106.003C246.589 105.897 246.429 105.685 246.343 105.368C245.923 103.806 245.491 102.357 245.046 101.021C244.61 99.6696 244.203 98.4745 243.826 97.4351C243.461 96.3927 243.144 95.5314 242.876 94.8511C242.616 94.1565 242.451 93.679 242.381 93.4187ZM84.8606 170.982C84.7701 171.006 84.6008 171.076 84.3527 171.192C84.1129 171.292 83.8309 171.417 83.5066 171.565C83.1823 171.713 82.8442 171.877 82.492 172.056C82.1369 172.225 81.8028 172.381 81.4899 172.526C81.177 172.671 80.9078 172.798 80.6823 172.907C80.4425 173.008 80.283 173.07 80.2038 173.091C79.4456 173.295 78.9599 173.001 78.7467 172.209C78.6888 171.994 78.6551 171.778 78.6456 171.562C78.6217 171.338 78.6378 171.128 78.694 170.931C78.7471 170.722 78.8417 170.533 78.978 170.363C79.1142 170.192 79.3064 170.05 79.5545 169.934C80.8236 169.374 82.0841 168.805 83.3359 168.225C84.5876 167.645 85.8476 167.051 87.1159 166.443C87.3949 166.307 87.6472 166.185 87.8726 166.076C88.095 165.955 88.3411 165.81 88.611 165.64C88.9035 165.464 89.2258 165.287 89.5779 165.107C89.927 164.916 90.2791 164.736 90.6342 164.568C91.0007 164.396 91.3533 164.241 91.6919 164.101C92.0418 163.958 92.3639 163.847 92.6581 163.768C93.0202 163.671 93.3238 163.717 93.5688 163.905C93.8221 164.08 94.0051 164.377 94.1177 164.795C94.1756 165.01 94.215 165.224 94.2359 165.437C94.2537 165.639 94.2386 165.831 94.1908 166.013C94.1429 166.196 94.0534 166.36 93.9224 166.504C93.7914 166.649 93.6044 166.766 93.3616 166.856C92.7409 167.12 92.0811 167.419 91.3821 167.752C90.6801 168.075 90.0788 168.388 89.5782 168.693C89.3702 168.822 89.2309 168.981 89.1604 169.169C89.0868 169.347 89.0635 169.554 89.0905 169.789C89.1144 170.013 89.1511 170.24 89.2007 170.469C89.2586 170.684 89.3149 170.894 89.3698 171.097C89.4977 171.573 89.6425 172.043 89.8044 172.509C89.9776 172.973 90.1451 173.437 90.307 173.903C90.8474 175.505 91.4341 177.077 92.0672 178.618C92.7117 180.155 93.3776 181.705 94.0651 183.268C94.103 183.318 94.1295 183.372 94.1448 183.429C94.16 183.485 94.1752 183.542 94.1904 183.598C94.358 184.221 94.1259 184.756 93.4944 185.205L92.7945 185.649C92.6091 185.771 92.4202 185.859 92.2278 185.91C91.9336 185.99 91.6701 185.957 91.4372 185.814C91.2075 185.681 91.0155 185.442 90.8615 185.095C90.0208 183.234 89.2228 181.373 88.4674 179.514C87.709 177.643 87.0324 175.737 86.4376 173.798C86.3297 173.487 86.2199 173.147 86.108 172.776C85.9962 172.406 85.887 172.023 85.7804 171.626C85.6312 171.072 85.3246 170.857 84.8606 170.982ZM94.1875 166.069C93.8586 164.847 94.4862 164.023 96.0705 163.596C96.3421 163.523 96.5995 163.533 96.8428 163.625C97.0861 163.717 97.2597 163.889 97.3637 164.14C97.6513 164.803 97.9261 165.463 98.1881 166.121C98.45 166.779 98.7291 167.523 99.0254 168.353C99.33 169.169 99.6655 170.123 100.032 171.213C100.406 172.29 100.845 173.579 101.346 175.083C101.389 175.241 101.442 175.348 101.506 175.404C101.58 175.457 101.652 175.474 101.72 175.455C101.822 175.428 101.896 175.299 101.943 175.068C102.099 174.115 102.325 173.242 102.621 172.446C102.913 171.639 103.269 170.931 103.687 170.32C104.102 169.699 104.578 169.189 105.114 168.79C105.658 168.376 106.247 168.084 106.88 167.914C107.718 167.688 108.54 167.722 109.347 168.015C110.154 168.307 110.912 168.825 111.622 169.568C112.332 170.312 112.984 171.271 113.579 172.446C114.172 173.609 114.673 174.955 115.084 176.482C115.197 176.901 115.256 177.255 115.261 177.545C115.275 177.821 115.229 178.057 115.125 178.255C115.02 178.453 114.846 178.616 114.6 178.742C114.358 178.88 114.045 179.001 113.66 179.105C113.129 179.248 112.716 179.249 112.424 179.11C112.143 178.967 111.944 178.681 111.829 178.251C111.542 177.187 111.199 176.205 110.799 175.306C110.408 174.392 109.991 173.612 109.551 172.966C109.11 172.32 108.663 171.833 108.211 171.506C107.77 171.175 107.358 171.062 106.973 171.166C106.101 171.4 105.42 172.342 104.93 173.991C104.45 175.637 104.125 178.012 103.953 181.116C103.933 181.401 103.889 181.643 103.821 181.844C103.754 182.044 103.655 182.216 103.523 182.361C103.404 182.502 103.241 182.619 103.035 182.711C102.832 182.814 102.584 182.905 102.29 182.984C101.69 183.145 101.229 183.148 100.908 182.992C100.598 182.832 100.362 182.496 100.199 181.981C99.6015 180.03 98.9714 178.185 98.3092 176.446C97.6552 174.693 97.0371 173.117 96.4549 171.721C95.881 170.31 95.3849 169.12 94.9668 168.153C94.5569 167.171 94.2971 166.476 94.1875 166.069ZM131.178 169.657C131.43 169.286 131.715 169.058 132.031 168.972C132.212 168.924 132.389 168.925 132.56 168.976C132.732 169.027 132.934 169.124 133.167 169.268C133.406 169.482 133.583 169.665 133.697 169.817C133.819 169.954 133.901 170.101 133.943 170.26C134.035 170.599 133.952 170.968 133.695 171.364C133.273 171.963 132.794 172.529 132.258 173.062C131.719 173.583 131.138 174.061 130.514 174.496C129.891 174.931 129.228 175.309 128.526 175.632C127.827 175.965 127.116 176.23 126.392 176.425C125.475 176.671 124.583 176.784 123.716 176.763C122.851 176.752 122.044 176.618 121.295 176.358C120.557 176.096 119.892 175.722 119.301 175.238C118.706 174.743 118.216 174.141 117.831 173.431C117.644 173.142 117.493 172.964 117.378 172.898C117.272 172.817 117.122 172.803 116.93 172.855C116.511 172.967 116.161 172.952 115.88 172.81C115.599 172.667 115.406 172.403 115.303 172.018C115.26 171.86 115.244 171.755 115.255 171.704L115.197 171.355C115.144 170.932 115.172 170.609 115.282 170.386C115.403 170.159 115.639 169.998 115.99 169.904L116.244 169.835C116.72 169.707 116.994 169.397 117.068 168.904C117.208 168.029 117.464 167.195 117.833 166.404C118.203 165.613 118.666 164.9 119.223 164.264C119.777 163.618 120.406 163.066 121.108 162.61C121.819 162.14 122.576 161.796 123.379 161.58C124.217 161.355 125.031 161.269 125.822 161.323C126.622 161.363 127.351 161.525 128.01 161.808C128.669 162.092 129.229 162.482 129.69 162.976C130.162 163.468 130.488 164.048 130.667 164.716C130.792 165.18 130.816 165.628 130.738 166.062C130.661 166.495 130.492 166.905 130.232 167.29C129.968 167.665 129.618 168.008 129.18 168.32C128.753 168.629 128.242 168.894 127.646 169.115L121.916 171.294C121.69 171.355 121.518 171.462 121.402 171.615C121.296 171.764 121.27 171.935 121.321 172.128C121.401 172.422 121.584 172.676 121.872 172.89C122.172 173.1 122.531 173.265 122.951 173.382C123.38 173.485 123.848 173.535 124.357 173.532C124.877 173.525 125.392 173.453 125.901 173.316C126.387 173.185 126.873 173.006 127.358 172.779C127.851 172.537 128.322 172.258 128.772 171.943C129.232 171.625 129.666 171.278 130.075 170.901C130.48 170.512 130.848 170.098 131.178 169.657ZM126.214 166.296C126.375 166.217 126.501 166.098 126.592 165.94C126.68 165.771 126.698 165.59 126.646 165.398C126.6 165.228 126.495 165.086 126.331 164.973C126.167 164.859 125.962 164.774 125.717 164.719C125.468 164.653 125.194 164.623 124.892 164.632C124.591 164.64 124.282 164.687 123.965 164.772C123.501 164.897 123.044 165.093 122.594 165.359C122.144 165.626 121.752 165.926 121.417 166.259C121.078 166.58 120.821 166.911 120.645 167.249C120.467 167.576 120.412 167.87 120.482 168.13C120.552 168.391 120.746 168.478 121.063 168.393C121.255 168.341 121.56 168.235 121.978 168.074C122.396 167.913 122.857 167.734 123.363 167.537C123.865 167.329 124.371 167.114 124.882 166.892C125.392 166.669 125.836 166.471 126.214 166.296ZM139.982 161.244C139.715 161.292 139.46 161.178 139.217 160.904C138.973 160.63 138.799 160.3 138.696 159.916C138.647 159.734 138.617 159.554 138.605 159.376C138.579 159.188 138.582 159.018 138.613 158.864C138.644 158.71 138.7 158.579 138.781 158.473C138.858 158.355 138.965 158.278 139.101 158.241C139.519 158.128 139.997 157.988 140.534 157.819C141.068 157.639 141.642 157.448 142.255 157.246C142.563 157.127 142.688 156.893 142.631 156.545C142.291 154.876 142.052 153.424 141.913 152.187C141.774 150.95 141.725 149.889 141.766 149.004C141.804 148.108 141.919 147.361 142.11 146.764C142.312 146.163 142.581 145.672 142.915 145.291C143.015 145.167 143.138 145.037 143.283 144.901C143.426 144.753 143.57 144.66 143.717 144.62C144 144.544 144.314 144.538 144.659 144.603C145.013 144.654 145.35 144.757 145.671 144.913C146.001 145.055 146.288 145.245 146.534 145.482C146.777 145.708 146.935 145.957 147.008 146.228C147.036 146.33 147.036 146.421 147.009 146.501C146.979 146.57 146.937 146.642 146.885 146.717C146.532 147.164 146.24 147.636 146.011 148.135C145.781 148.634 145.626 149.209 145.547 149.862C145.468 150.514 145.46 151.275 145.524 152.143C145.588 153.012 145.737 154.04 145.971 155.227C146.02 155.408 146.085 155.536 146.166 155.611C146.255 155.672 146.385 155.68 146.554 155.634C146.849 155.555 147.193 155.438 147.588 155.283C147.992 155.114 148.416 154.933 148.862 154.74C149.305 154.536 149.753 154.33 150.207 154.123C150.658 153.905 151.084 153.705 151.484 153.525C151.893 153.33 152.261 153.164 152.588 153.027C152.912 152.879 153.165 152.781 153.346 152.732C153.708 152.635 154.036 152.68 154.329 152.868C154.622 153.056 154.836 153.399 154.97 153.897C155.146 154.372 155.339 154.908 155.549 155.507C155.77 156.103 155.996 156.74 156.227 157.418C156.467 158.082 156.702 158.777 156.934 159.503C157.174 160.215 157.407 160.923 157.633 161.627C157.856 162.319 158.067 162.991 158.266 163.641C158.465 164.291 158.638 164.888 158.784 165.431C158.937 165.997 158.847 166.476 158.516 166.869C158.196 167.258 157.646 167.558 156.865 167.768C156.514 167.863 156.22 167.851 155.981 167.733C155.746 167.626 155.586 167.414 155.501 167.098C154.959 165.083 154.403 163.267 153.834 161.648C153.265 160.03 152.779 158.674 152.375 157.581C152.198 157.058 151.861 156.864 151.363 156.998L147.247 158.615C147.019 158.713 146.898 158.849 146.884 159.023C146.881 159.193 146.918 159.42 146.994 159.703C147.667 162.204 148.308 164.337 148.917 166.103C149.525 167.868 150.068 169.343 150.544 170.525C151.034 171.716 151.436 172.645 151.749 173.314C152.066 173.993 152.266 174.491 152.352 174.808C152.416 175.046 152.377 175.286 152.237 175.531C152.107 175.772 151.914 176 151.656 176.215C151.41 176.427 151.126 176.612 150.805 176.772C150.487 176.942 150.181 177.067 149.886 177.146C149.603 177.222 149.335 177.24 149.081 177.199C148.842 177.166 148.675 177.041 148.58 176.824C148.254 176.063 147.923 175.217 147.588 174.288C147.256 173.37 146.906 172.341 146.539 171.202C146.186 170.072 145.816 168.83 145.428 167.479C145.037 166.115 144.622 164.619 144.183 162.99C144.071 162.571 143.961 162.163 143.854 161.767C143.748 161.371 143.652 160.972 143.568 160.57C143.477 160.231 143.245 160.111 142.871 160.212L139.982 161.244ZM152.471 149.345C152.143 149.434 151.819 149.472 151.501 149.461C151.19 149.435 150.905 149.366 150.644 149.255C150.381 149.131 150.154 148.968 149.966 148.764C149.789 148.556 149.662 148.311 149.586 148.028C149.458 147.553 149.541 147.118 149.836 146.723C150.141 146.326 150.611 146.041 151.245 145.871C151.539 145.792 151.837 145.772 152.139 145.812C152.438 145.841 152.714 145.918 152.966 146.045C153.23 146.168 153.457 146.337 153.649 146.553C153.837 146.757 153.967 146.989 154.037 147.249C154.168 147.736 154.09 148.169 153.804 148.55C153.526 148.916 153.082 149.181 152.471 149.345ZM167.921 150.139C167.502 150.251 167.165 150.464 166.909 150.775C166.65 151.075 166.461 151.454 166.341 151.911C166.218 152.357 166.155 152.865 166.151 153.437C166.144 153.997 166.179 154.6 166.256 155.247C166.333 155.894 166.445 156.561 166.594 157.249C166.743 157.937 166.91 158.627 167.096 159.317C167.34 160.222 167.614 161.107 167.92 161.971C168.233 162.821 168.491 163.62 168.692 164.367C168.823 164.853 168.744 165.281 168.455 165.65C168.169 166.03 167.692 166.311 167.024 166.49C166.9 166.524 166.755 166.55 166.591 166.57C166.426 166.59 166.261 166.586 166.096 166.558C165.942 166.527 165.791 166.464 165.645 166.37C165.513 166.284 165.413 166.141 165.347 165.94C164.977 164.972 164.556 163.993 164.084 163.004C163.611 162.014 163.089 161.045 162.518 160.094C161.955 159.129 161.332 158.192 160.651 157.283C159.981 156.371 159.254 155.499 158.472 154.666C158.336 154.521 158.214 154.383 158.106 154.255C158.01 154.123 157.944 153.989 157.907 153.853C157.862 153.683 157.886 153.482 157.982 153.251C158.085 153.004 158.227 152.766 158.408 152.535C158.6 152.301 158.818 152.097 159.062 151.922C159.315 151.733 159.571 151.603 159.831 151.533C160.261 151.417 160.721 151.615 161.211 152.127C161.697 152.627 162.257 153.489 162.89 154.715C163.008 154.926 163.096 155.072 163.154 155.153C163.212 155.235 163.27 155.268 163.326 155.253C163.451 155.219 163.478 155.005 163.409 154.612C163.255 153.5 163.239 152.515 163.36 151.657C163.478 150.788 163.713 150.039 164.066 149.41C164.427 148.767 164.892 148.242 165.462 147.833C166.043 147.422 166.718 147.113 167.488 146.906C167.929 146.787 168.387 146.706 168.861 146.664C169.335 146.621 169.774 146.63 170.179 146.691C170.583 146.752 170.929 146.865 171.217 147.031C171.504 147.196 171.686 147.42 171.762 147.703C171.816 147.907 171.837 148.163 171.822 148.47C171.816 148.763 171.78 149.058 171.714 149.354C171.646 149.64 171.545 149.898 171.413 150.127C171.289 150.343 171.136 150.475 170.955 150.524C170.751 150.578 170.538 150.575 170.315 150.514C170.089 150.441 169.845 150.367 169.582 150.292C169.331 150.214 169.065 150.152 168.786 150.106C168.515 150.046 168.226 150.056 167.921 150.139ZM174.722 146.124C175.481 145.92 176.289 145.811 177.147 145.799C178.002 145.775 178.806 145.832 179.559 145.969C180.309 146.095 180.951 146.292 181.484 146.561C182.018 146.83 182.333 147.146 182.431 147.508C182.48 147.689 182.455 147.914 182.358 148.183C182.257 148.44 182.121 148.702 181.95 148.966C181.775 149.219 181.57 149.451 181.335 149.659C181.109 149.854 180.893 149.979 180.69 150.033C180.418 150.107 180.082 150.076 179.682 149.941C179.293 149.803 178.858 149.653 178.377 149.491C177.905 149.314 177.401 149.177 176.865 149.079C176.329 148.98 175.783 149.006 175.229 149.155C174.867 149.252 174.591 149.424 174.402 149.669C174.222 149.899 174.174 150.173 174.259 150.49C174.335 150.773 174.549 151.025 174.9 151.246C175.247 151.456 175.683 151.654 176.206 151.841C176.741 152.024 177.337 152.21 177.994 152.397C178.652 152.584 179.326 152.791 180.018 153.018C180.722 153.241 181.417 153.503 182.105 153.803C182.792 154.103 183.428 154.46 184.013 154.873C184.609 155.283 185.127 155.769 185.57 156.329C186.009 156.879 186.327 157.521 186.525 158.256C186.696 158.89 186.738 159.498 186.652 160.079C186.565 160.661 186.363 161.194 186.045 161.681C185.727 162.167 185.307 162.589 184.784 162.948C184.262 163.307 183.656 163.58 182.965 163.765C182.094 164 181.254 164.08 180.445 164.007C179.64 163.944 178.909 163.753 178.252 163.432C177.595 163.111 177.027 162.669 176.548 162.107C176.08 161.541 175.743 160.873 175.536 160.104C175.268 159.108 175.248 158.336 175.477 157.789C175.718 157.239 176.223 156.861 176.992 156.654C177.467 156.526 177.871 156.514 178.202 156.619C178.534 156.724 178.735 156.907 178.805 157.167C178.841 157.303 178.857 157.45 178.851 157.609C178.842 157.757 178.831 157.918 178.817 158.092C178.812 158.251 178.809 158.422 178.809 158.604C178.821 158.783 178.85 158.957 178.895 159.127C178.975 159.421 179.119 159.686 179.328 159.921C179.536 160.156 179.781 160.344 180.063 160.487C180.358 160.638 180.675 160.735 181.014 160.777C181.353 160.819 181.693 160.795 182.032 160.704C182.937 160.46 183.29 159.965 183.089 159.218C182.93 158.629 182.549 158.137 181.945 157.742C181.338 157.335 180.617 156.977 179.781 156.668C178.942 156.347 178.047 156.042 177.095 155.752C176.155 155.459 175.259 155.13 174.408 154.764C173.557 154.398 172.816 153.967 172.185 153.469C171.55 152.96 171.134 152.338 170.936 151.603C170.772 150.992 170.745 150.398 170.857 149.822C170.981 149.242 171.214 148.712 171.558 148.231C171.899 147.739 172.336 147.312 172.87 146.95C173.415 146.585 174.032 146.31 174.722 146.124ZM183.562 138.52C183.4 137.921 183.457 137.456 183.733 137.127C184.005 136.787 184.532 136.512 185.313 136.302C185.596 136.225 185.841 136.19 186.049 136.195C186.265 136.185 186.459 136.23 186.631 136.329C186.815 136.425 186.977 136.576 187.117 136.781C187.265 136.972 187.413 137.229 187.561 137.553C187.98 138.569 188.42 139.616 188.88 140.693C189.351 141.768 189.829 142.847 190.315 143.93C190.52 144.421 190.854 144.604 191.318 144.479C191.443 144.445 191.643 144.379 191.92 144.28C192.205 144.167 192.541 144.04 192.928 143.9C193.312 143.748 193.724 143.589 194.165 143.421C194.617 143.251 195.064 143.088 195.508 142.933C195.959 142.763 196.386 142.611 196.787 142.479C197.197 142.332 197.56 142.216 197.877 142.131C198.126 142.064 198.338 142.062 198.512 142.124C198.684 142.175 198.83 142.269 198.952 142.406C199.082 142.529 199.184 142.683 199.259 142.87C199.342 143.042 199.409 143.224 199.461 143.416C199.506 143.586 199.519 143.77 199.5 143.97C199.492 144.166 199.452 144.353 199.378 144.53C199.313 144.694 199.213 144.842 199.079 144.975C198.945 145.108 198.776 145.202 198.573 145.257C197.588 145.522 196.601 145.824 195.612 146.163C194.632 146.487 193.657 146.835 192.689 147.205C192.198 147.409 192.012 147.733 192.131 148.174C192.14 148.208 192.158 148.252 192.184 148.305C192.208 148.347 192.224 148.385 192.233 148.419C192.634 149.367 193.007 150.256 193.351 151.086C193.707 151.912 194.016 152.654 194.278 153.312C194.548 153.955 194.767 154.497 194.934 154.938C195.109 155.364 195.217 155.65 195.256 155.797C195.366 156.205 195.418 156.555 195.412 156.848C195.409 157.152 195.339 157.413 195.204 157.632C195.072 157.862 194.862 158.052 194.575 158.202C194.302 158.36 193.939 158.5 193.486 158.622C193.056 158.738 192.712 158.721 192.454 158.572C192.195 158.423 191.998 158.143 191.863 157.73C191.436 156.413 190.967 155.101 190.458 153.794C189.945 152.476 189.411 151.169 188.857 149.874C188.624 149.415 188.304 149.24 187.896 149.35C187.862 149.359 187.824 149.375 187.782 149.399C187.74 149.422 187.702 149.439 187.668 149.448C187.009 149.795 186.39 150.132 185.81 150.458C185.23 150.784 184.693 151.11 184.198 151.437C183.92 151.621 183.669 151.768 183.443 151.877C183.215 151.975 183.004 152.05 182.812 152.102C182.552 152.172 182.329 152.111 182.143 151.918C181.955 151.714 181.813 151.436 181.719 151.085C181.686 150.961 181.659 150.816 181.639 150.652C181.616 150.476 181.617 150.3 181.642 150.123C181.653 149.938 181.702 149.761 181.79 149.592C181.864 149.414 181.99 149.253 182.17 149.107C182.593 148.787 183.174 148.418 183.911 148.001C184.645 147.573 185.486 147.135 186.433 146.686C186.644 146.568 186.795 146.43 186.886 146.272C186.985 146.1 187 145.884 186.93 145.623C186.915 145.567 186.899 145.51 186.884 145.454C186.866 145.386 186.836 145.321 186.795 145.259C186.334 144.267 185.904 143.369 185.506 142.566C185.116 141.749 184.777 141.051 184.488 140.474C184.21 139.893 183.99 139.437 183.828 139.104C183.666 138.771 183.577 138.577 183.562 138.52ZM209.961 136.64C210.719 136.436 211.527 136.328 212.385 136.315C213.241 136.291 214.045 136.348 214.798 136.485C215.547 136.611 216.189 136.808 216.723 137.077C217.256 137.346 217.572 137.662 217.669 138.024C217.718 138.205 217.694 138.43 217.596 138.699C217.496 138.957 217.359 139.218 217.188 139.482C217.013 139.736 216.809 139.967 216.574 140.176C216.347 140.37 216.132 140.495 215.928 140.55C215.656 140.623 215.32 140.592 214.92 140.457C214.531 140.319 214.096 140.169 213.616 140.007C213.143 139.831 212.639 139.693 212.103 139.595C211.567 139.497 211.022 139.522 210.467 139.671C210.105 139.769 209.829 139.94 209.64 140.185C209.46 140.416 209.412 140.689 209.497 141.006C209.574 141.289 209.787 141.541 210.138 141.762C210.486 141.972 210.921 142.17 211.445 142.357C211.98 142.541 212.576 142.726 213.233 142.913C213.89 143.101 214.565 143.307 215.257 143.534C215.96 143.757 216.655 144.019 217.343 144.319C218.031 144.62 218.667 144.976 219.251 145.389C219.847 145.8 220.366 146.285 220.808 146.845C221.247 147.395 221.566 148.037 221.764 148.773C221.934 149.406 221.976 150.014 221.89 150.595C221.804 151.177 221.602 151.711 221.283 152.197C220.965 152.683 220.545 153.105 220.023 153.464C219.5 153.823 218.894 154.096 218.204 154.282C217.332 154.516 216.492 154.597 215.684 154.523C214.878 154.461 214.147 154.269 213.49 153.948C212.834 153.627 212.266 153.186 211.787 152.623C211.319 152.057 210.981 151.389 210.774 150.62C210.506 149.624 210.487 148.853 210.716 148.306C210.956 147.755 211.461 147.377 212.23 147.17C212.706 147.042 213.109 147.03 213.441 147.135C213.772 147.24 213.973 147.423 214.043 147.683C214.08 147.819 214.095 147.966 214.089 148.126C214.081 148.274 214.069 148.434 214.055 148.608C214.05 148.767 214.047 148.938 214.048 149.12C214.059 149.299 214.088 149.473 214.134 149.643C214.213 149.937 214.357 150.202 214.566 150.437C214.775 150.672 215.02 150.861 215.301 151.004C215.596 151.155 215.914 151.251 216.253 151.293C216.592 151.336 216.931 151.311 217.27 151.22C218.176 150.976 218.528 150.481 218.327 149.734C218.169 149.146 217.787 148.654 217.183 148.258C216.576 147.851 215.855 147.493 215.019 147.184C214.181 146.863 213.285 146.558 212.334 146.268C211.393 145.975 210.497 145.646 209.647 145.28C208.796 144.915 208.055 144.483 207.423 143.985C206.789 143.477 206.372 142.854 206.174 142.119C206.01 141.508 205.984 140.914 206.096 140.338C206.219 139.759 206.452 139.229 206.796 138.748C207.137 138.255 207.574 137.828 208.108 137.466C208.653 137.101 209.27 136.826 209.961 136.64ZM218.8 129.037C218.639 128.437 218.696 127.972 218.971 127.643C219.244 127.303 219.77 127.028 220.551 126.818C220.834 126.742 221.079 126.706 221.287 126.711C221.503 126.701 221.697 126.746 221.869 126.845C222.053 126.941 222.215 127.092 222.355 127.297C222.503 127.488 222.652 127.745 222.799 128.069C223.219 129.085 223.658 130.132 224.118 131.21C224.589 132.284 225.068 133.363 225.553 134.446C225.758 134.937 226.093 135.12 226.557 134.995C226.681 134.962 226.882 134.895 227.159 134.797C227.444 134.684 227.78 134.557 228.167 134.416C228.55 134.264 228.963 134.105 229.403 133.938C229.855 133.768 230.302 133.605 230.746 133.449C231.198 133.279 231.624 133.128 232.026 132.995C232.435 132.849 232.798 132.733 233.115 132.647C233.364 132.58 233.576 132.578 233.75 132.64C233.922 132.691 234.069 132.785 234.19 132.922C234.32 133.045 234.423 133.2 234.497 133.386C234.58 133.558 234.647 133.74 234.699 133.932C234.745 134.102 234.758 134.287 234.739 134.486C234.731 134.682 234.69 134.869 234.616 135.047C234.551 135.21 234.452 135.358 234.317 135.491C234.183 135.624 234.015 135.718 233.811 135.773C232.826 136.038 231.84 136.34 230.851 136.679C229.87 137.004 228.896 137.351 227.927 137.721C227.436 137.926 227.25 138.249 227.369 138.69C227.378 138.724 227.396 138.768 227.423 138.821C227.446 138.864 227.462 138.902 227.471 138.936C227.872 139.884 228.245 140.772 228.59 141.602C228.945 142.428 229.254 143.171 229.516 143.828C229.787 144.471 230.005 145.013 230.172 145.454C230.348 145.88 230.455 146.167 230.495 146.314C230.604 146.721 230.656 147.071 230.65 147.364C230.647 147.668 230.578 147.93 230.442 148.148C230.31 148.378 230.1 148.568 229.813 148.718C229.54 148.876 229.177 149.016 228.725 149.138C228.295 149.254 227.95 149.237 227.692 149.089C227.433 148.94 227.236 148.659 227.101 148.246C226.674 146.929 226.205 145.617 225.696 144.31C225.183 142.992 224.65 141.685 224.095 140.391C223.862 139.931 223.542 139.757 223.135 139.866C223.101 139.875 223.063 139.892 223.02 139.915C222.978 139.939 222.94 139.955 222.906 139.964C222.247 140.311 221.628 140.648 221.048 140.974C220.468 141.3 219.931 141.626 219.437 141.954C219.159 142.138 218.907 142.284 218.681 142.394C218.453 142.491 218.242 142.566 218.05 142.618C217.79 142.688 217.567 142.627 217.382 142.434C217.193 142.23 217.052 141.952 216.957 141.602C216.924 141.477 216.897 141.333 216.877 141.168C216.854 140.992 216.855 140.816 216.88 140.639C216.891 140.454 216.941 140.277 217.029 140.108C217.102 139.93 217.229 139.769 217.408 139.623C217.831 139.303 218.412 138.935 219.149 138.518C219.883 138.09 220.724 137.651 221.671 137.202C221.882 137.084 222.033 136.947 222.124 136.789C222.224 136.616 222.238 136.4 222.168 136.14C222.153 136.083 222.138 136.027 222.122 135.97C222.104 135.902 222.075 135.837 222.034 135.775C221.572 134.783 221.143 133.885 220.745 133.082C220.355 132.265 220.015 131.568 219.726 130.99C219.449 130.409 219.229 129.953 219.066 129.62C218.904 129.288 218.815 129.093 218.8 129.037ZM250.133 137.643C250.385 137.271 250.669 137.043 250.986 136.958C251.167 136.909 251.343 136.91 251.515 136.961C251.686 137.012 251.889 137.109 252.121 137.253C252.361 137.468 252.538 137.651 252.651 137.802C252.773 137.939 252.856 138.087 252.898 138.245C252.99 138.585 252.907 138.953 252.649 139.35C252.228 139.949 251.749 140.514 251.213 141.047C250.674 141.568 250.092 142.047 249.469 142.481C248.846 142.916 248.183 143.295 247.481 143.617C246.782 143.951 246.071 144.215 245.346 144.41C244.43 144.657 243.538 144.769 242.67 144.748C241.806 144.738 240.999 144.603 240.25 144.344C239.511 144.081 238.847 143.708 238.255 143.224C237.661 142.728 237.171 142.126 236.786 141.417C236.599 141.127 236.448 140.949 236.333 140.883C236.226 140.803 236.077 140.788 235.884 140.84C235.466 140.953 235.116 140.938 234.835 140.795C234.554 140.652 234.361 140.388 234.258 140.004C234.215 139.845 234.199 139.74 234.209 139.689L234.152 139.34C234.099 138.918 234.127 138.595 234.237 138.371C234.358 138.144 234.594 137.984 234.945 137.889L235.199 137.821C235.674 137.693 235.949 137.382 236.023 136.889C236.163 136.014 236.418 135.181 236.788 134.39C237.157 133.598 237.621 132.885 238.178 132.25C238.732 131.603 239.36 131.052 240.063 130.596C240.774 130.125 241.531 129.782 242.334 129.566C243.172 129.34 243.986 129.255 244.777 129.309C245.577 129.348 246.306 129.51 246.965 129.794C247.624 130.078 248.183 130.467 248.644 130.962C249.116 131.454 249.442 132.033 249.622 132.701C249.747 133.165 249.771 133.614 249.693 134.047C249.616 134.481 249.447 134.89 249.186 135.276C248.923 135.65 248.572 135.993 248.135 136.305C247.708 136.614 247.197 136.879 246.601 137.1L240.871 139.28C240.645 139.341 240.473 139.447 240.356 139.6C240.251 139.75 240.224 139.921 240.276 140.113C240.355 140.407 240.539 140.661 240.827 140.875C241.126 141.086 241.486 141.25 241.906 141.367C242.334 141.471 242.803 141.521 243.312 141.517C243.832 141.511 244.346 141.439 244.856 141.302C245.342 141.171 245.828 140.992 246.313 140.764C246.806 140.522 247.277 140.244 247.726 139.929C248.187 139.61 248.621 139.263 249.029 138.886C249.435 138.498 249.802 138.083 250.133 137.643ZM245.169 134.282C245.33 134.202 245.455 134.083 245.546 133.925C245.634 133.756 245.652 133.575 245.601 133.383C245.555 133.213 245.45 133.072 245.286 132.958C245.122 132.844 244.917 132.76 244.672 132.705C244.423 132.638 244.148 132.609 243.847 132.617C243.546 132.625 243.237 132.672 242.92 132.757C242.456 132.882 241.999 133.078 241.549 133.345C241.099 133.612 240.706 133.911 240.371 134.244C240.033 134.566 239.776 134.896 239.6 135.235C239.421 135.562 239.367 135.856 239.437 136.116C239.507 136.376 239.7 136.464 240.017 136.378C240.21 136.327 240.515 136.22 240.933 136.059C241.35 135.898 241.812 135.719 242.317 135.523C242.82 135.315 243.326 135.1 243.836 134.877C244.347 134.655 244.791 134.456 245.169 134.282ZM249.812 129.009C249.693 128.568 249.801 128.181 250.136 127.848C250.468 127.504 251.002 127.233 251.738 127.035C251.908 126.989 252.066 126.971 252.214 126.979C252.362 126.988 252.506 127.047 252.644 127.155C252.791 127.249 252.94 127.397 253.091 127.599C253.243 127.801 253.411 128.065 253.596 128.391C253.793 128.763 253.937 128.937 254.027 128.912C254.106 128.891 254.158 128.701 254.183 128.343C254.213 127.643 254.328 127.011 254.529 126.447C254.737 125.869 255.008 125.366 255.342 124.936C255.672 124.495 256.059 124.13 256.503 123.841C256.958 123.548 257.458 123.329 258.001 123.183C259.098 122.888 260.179 122.821 261.242 122.984C262.302 123.136 263.277 123.486 264.165 124.036C265.05 124.575 265.825 125.288 266.489 126.178C267.15 127.056 267.636 128.072 267.946 129.226C268.275 130.448 268.365 131.637 268.215 132.794C268.076 133.948 267.73 135.006 267.176 135.968C266.619 136.919 265.87 137.746 264.931 138.447C264.005 139.158 262.92 139.68 261.675 140.015L260.801 140.214C260.291 140.351 260.114 140.708 260.27 141.286L263.232 148.844C263.273 149.039 263.252 149.233 263.17 149.425C263.103 149.625 262.984 149.815 262.814 149.994C262.655 150.17 262.449 150.329 262.195 150.47C261.953 150.608 261.691 150.715 261.408 150.791C260.593 151.01 260.08 150.863 259.869 150.35C259.077 148.354 258.285 146.468 257.491 144.691C256.709 142.911 255.95 141.265 255.215 139.752C254.488 138.224 253.807 136.842 253.171 135.605C252.534 134.369 251.972 133.294 251.484 132.382C251.007 131.467 250.624 130.72 250.335 130.143C250.035 129.568 249.86 129.19 249.812 129.009ZM256.534 132.006C256.732 132.741 256.957 133.464 257.209 134.173C257.457 134.87 257.756 135.621 258.106 136.425C258.311 136.916 258.666 137.13 259.171 137.067C259.483 137.056 259.83 137.035 260.21 137.006C260.599 136.962 260.918 136.906 261.166 136.839C261.891 136.644 262.518 136.36 263.049 135.987C263.579 135.613 264.001 135.172 264.313 134.664C264.622 134.144 264.815 133.576 264.892 132.96C264.969 132.345 264.916 131.698 264.733 131.019C264.511 130.193 264.191 129.454 263.773 128.802C263.351 128.138 262.871 127.594 262.332 127.169C261.804 126.741 261.233 126.445 260.619 126.283C260.016 126.117 259.409 126.117 258.798 126.281C258.266 126.424 257.812 126.674 257.434 127.031C257.065 127.373 256.779 127.796 256.575 128.3C256.379 128.789 256.275 129.351 256.264 129.985C256.252 130.619 256.343 131.293 256.534 132.006ZM272.018 119.938C272.776 119.734 273.585 119.626 274.443 119.613C275.298 119.59 276.102 119.646 276.855 119.783C277.605 119.909 278.247 120.107 278.78 120.376C279.314 120.645 279.629 120.96 279.727 121.322C279.775 121.503 279.751 121.728 279.654 121.997C279.553 122.255 279.417 122.516 279.245 122.781C279.071 123.034 278.866 123.265 278.631 123.474C278.404 123.669 278.189 123.793 277.985 123.848C277.714 123.921 277.378 123.89 276.977 123.755C276.588 123.617 276.154 123.467 275.673 123.305C275.201 123.129 274.697 122.992 274.16 122.893C273.624 122.795 273.079 122.82 272.524 122.969C272.162 123.067 271.887 123.238 271.698 123.483C271.517 123.714 271.47 123.988 271.555 124.304C271.631 124.587 271.844 124.839 272.195 125.06C272.543 125.27 272.979 125.469 273.502 125.655C274.037 125.839 274.633 126.024 275.29 126.212C275.947 126.399 276.622 126.606 277.314 126.832C278.017 127.055 278.713 127.317 279.4 127.618C280.088 127.918 280.724 128.275 281.308 128.688C281.904 129.098 282.423 129.583 282.865 130.144C283.304 130.693 283.623 131.335 283.821 132.071C283.991 132.705 284.034 133.312 283.947 133.894C283.861 134.475 283.659 135.009 283.341 135.495C283.023 135.981 282.602 136.404 282.08 136.763C281.558 137.122 280.951 137.394 280.261 137.58C279.39 137.814 278.55 137.895 277.741 137.821C276.936 137.759 276.204 137.567 275.548 137.247C274.891 136.926 274.323 136.484 273.844 135.921C273.376 135.355 273.039 134.688 272.832 133.918C272.564 132.922 272.544 132.151 272.773 131.604C273.013 131.054 273.518 130.675 274.288 130.468C274.763 130.34 275.166 130.329 275.498 130.434C275.83 130.539 276.031 130.721 276.101 130.981C276.137 131.117 276.153 131.265 276.147 131.424C276.138 131.572 276.127 131.733 276.113 131.906C276.107 132.066 276.105 132.236 276.105 132.418C276.117 132.597 276.145 132.771 276.191 132.941C276.27 133.235 276.414 133.5 276.623 133.735C276.832 133.97 277.077 134.159 277.358 134.302C277.654 134.453 277.971 134.55 278.31 134.592C278.649 134.634 278.988 134.609 279.328 134.518C280.233 134.274 280.585 133.779 280.384 133.032C280.226 132.444 279.845 131.952 279.241 131.556C278.634 131.149 277.912 130.791 277.077 130.482C276.238 130.162 275.343 129.856 274.391 129.567C273.45 129.274 272.555 128.944 271.704 128.579C270.853 128.213 270.112 127.781 269.481 127.284C268.846 126.775 268.43 126.153 268.232 125.417C268.067 124.806 268.041 124.212 268.153 123.636C268.276 123.057 268.51 122.527 268.854 122.046C269.194 121.554 269.632 121.127 270.165 120.765C270.71 120.4 271.328 120.124 272.018 119.938Z" fill="white"/>
</svg>
