<svg width="69" height="71" viewBox="0 0 69 71" fill="none" xmlns="http://www.w3.org/2000/svg">
<path d="M16.5329 23.5681L1.09167 35.1549C-0.470988 36.3275 -0.33216 38.7283 1.35508 39.7102L19.3542 50.1845C19.9105 50.5082 20.3346 51.0204 20.5509 51.6298L26.7837 69.1874C27.4393 71.0342 29.7561 71.6035 31.1822 70.2682L45.447 56.9115C45.9374 56.4524 46.5791 56.1922 47.2485 56.1812L66.3306 55.8674C68.2268 55.8363 69.5061 53.9037 68.8059 52.1282L61.5645 33.7668C61.3564 33.2392 61.3167 32.6594 61.4509 32.108L66.2255 12.4891C66.6898 10.5813 65.063 8.81831 63.1404 9.14583L45.3233 12.1809C44.6486 12.2959 43.9556 12.1495 43.3835 11.7712L26.2642 0.449962C24.6875 -0.592698 22.562 0.264756 22.1355 2.11552L17.5543 21.9954C17.4092 22.6249 17.0473 23.1821 16.5329 23.5681Z" fill="#9CC624"/>
</svg>
